<?xml version="1.0" standalone="no"?>
<!DOCTYPE svg PUBLIC "-//W3C//DTD SVG 20010904//EN"
 "http://www.w3.org/TR/2001/REC-SVG-20010904/DTD/svg10.dtd">
<svg version="1.0" xmlns="http://www.w3.org/2000/svg"
 width="512.000000pt" height="512.000000pt" viewBox="0 0 512.000000 512.000000"
 preserveAspectRatio="xMidYMid meet">

<g transform="translate(0.000000,512.000000) scale(0.100000,-0.100000)"
fill="#000000" stroke="none">
<path d="M2527 5036 c-78 -40 -481 -245 -895 -456 -415 -210 -767 -394 -782
-407 -44 -36 -52 -95 -48 -340 3 -232 5 -237 72 -287 l27 -21 1806 -3 c1785
-2 1807 -2 1847 18 76 36 81 54 84 306 4 244 -2 287 -47 331 -16 16 -415 225
-918 481 -1053 535 -925 493 -1146 378z"/>
<path d="M1365 3340 c-77 -38 -80 -49 -83 -352 l-3 -267 93 34 c117 41 292 81
434 98 l109 13 0 196 c0 183 -1 198 -21 224 -50 67 -55 69 -282 72 -192 3
-210 1 -247 -18z"/>
<path d="M2495 3346 c-37 -17 -70 -52 -84 -89 -6 -16 -11 -103 -11 -203 l0
-174 321 0 320 0 -3 189 c-3 207 -6 216 -72 265 -25 19 -43 21 -234 23 -158 2
-214 0 -237 -11z"/>
<path d="M3625 3350 c-17 -5 -41 -19 -54 -31 -50 -47 -51 -57 -51 -525 l0
-436 88 87 c130 130 237 206 405 288 l147 72 -2 227 c-3 211 -4 228 -24 254
-50 67 -56 69 -277 71 -111 1 -216 -2 -232 -7z"/>
<path d="M1880 2549 c-412 -48 -748 -215 -988 -492 -59 -69 -556 -836 -573
-885 -6 -18 -8 -45 -5 -60 4 -15 122 -220 263 -455 278 -464 288 -477 368
-477 42 0 68 13 235 115 217 133 533 273 810 358 311 96 585 140 1000 162 301
16 386 28 536 79 276 93 531 278 699 507 36 48 177 287 315 532 227 403 250
447 250 490 0 38 -6 53 -31 82 -41 46 -91 59 -194 50 -270 -22 -503 -123 -690
-296 -38 -35 -119 -131 -180 -214 -62 -82 -135 -171 -163 -197 -104 -97 -246
-174 -407 -219 -75 -21 -104 -23 -425 -26 -344 -4 -345 -3 -384 19 -48 28 -76
79 -76 138 0 59 28 110 76 137 37 21 51 23 234 23 136 0 214 5 258 15 196 46
353 205 385 388 13 79 5 123 -33 168 -58 72 -35 69 -652 68 -304 -1 -587 -5
-628 -10z"/>
</g>
</svg>
