<?xml version="1.0" standalone="no"?>
<!DOCTYPE svg PUBLIC "-//W3C//DTD SVG 20010904//EN"
 "http://www.w3.org/TR/2001/REC-SVG-20010904/DTD/svg10.dtd">
<svg version="1.0" xmlns="http://www.w3.org/2000/svg"
 width="512.000000pt" height="512.000000pt" viewBox="0 0 512.000000 512.000000"
 preserveAspectRatio="xMidYMid meet">

<g transform="translate(0.000000,512.000000) scale(0.100000,-0.100000)"
fill="#000000" stroke="none">
<path d="M2336 4974 c-330 -60 -633 -260 -820 -544 -206 -311 -260 -709 -145
-1070 33 -107 115 -263 184 -355 36 -48 65 -90 65 -93 0 -4 -116 -124 -259
-266 l-259 -259 -46 32 c-140 96 -328 132 -501 96 -183 -38 -360 -176 -444
-345 -54 -111 -75 -208 -68 -325 18 -320 256 -574 574 -614 204 -26 386 40
539 194 130 130 188 273 187 455 -1 140 -44 277 -118 376 l-23 31 262 262 263
263 55 -44 c173 -141 427 -247 635 -265 l73 -6 0 -188 0 -187 -62 -40 c-139
-87 -269 -139 -518 -207 -161 -44 -186 -54 -198 -75 -10 -20 -12 -116 -9 -450
l3 -425 27 -80 c38 -116 90 -197 187 -295 100 -101 181 -159 430 -310 120 -73
192 -110 211 -110 19 0 86 35 196 101 246 149 338 214 429 304 130 128 191
238 220 395 18 104 20 833 1 870 -11 21 -31 30 -137 58 -275 72 -428 131 -567
218 l-73 45 0 190 0 189 41 0 c70 0 240 40 346 81 103 41 235 117 326 189 l51
41 262 -262 262 -262 -23 -31 c-113 -151 -151 -388 -91 -571 36 -111 89 -195
172 -275 113 -107 225 -161 374 -179 245 -31 505 95 633 306 83 136 115 321
83 473 -51 245 -259 454 -501 505 -173 36 -361 0 -501 -96 l-46 -32 -259 259
c-143 142 -259 262 -259 266 0 3 29 45 65 93 36 47 87 132 115 188 85 177 118
306 126 502 19 436 -188 842 -556 1092 -126 85 -315 160 -477 188 -107 19
-331 18 -437 -1z m426 -138 c223 -43 415 -145 578 -306 146 -144 242 -313 297
-518 23 -86 26 -116 26 -267 1 -152 -2 -180 -25 -266 -90 -332 -297 -588 -593
-730 -316 -153 -654 -153 -970 0 -296 142 -504 398 -593 730 -23 85 -26 115
-26 266 0 152 3 180 26 267 90 333 308 596 613 739 72 34 216 79 295 92 63 11
304 6 372 -7z m-1948 -2461 c235 -61 390 -261 389 -500 -1 -201 -105 -366
-288 -456 -293 -145 -644 22 -720 342 -42 178 6 342 139 475 133 132 309 183
480 139z m3718 4 c189 -39 358 -208 397 -397 32 -154 -15 -326 -121 -447 -53
-60 -147 -121 -227 -146 -76 -23 -210 -28 -280 -9 -239 64 -411 304 -385 540
33 309 317 521 616 459z m-1907 -419 c152 -93 310 -158 521 -213 l129 -34 0
-379 c0 -339 -2 -385 -18 -439 -57 -184 -186 -310 -528 -516 l-169 -102 -138
83 c-371 224 -497 344 -555 525 -21 67 -22 85 -22 449 l0 379 129 34 c211 55
383 126 526 217 30 19 56 35 57 35 2 1 32 -17 68 -39z"/>
<path d="M2193 4475 c-225 -61 -362 -267 -331 -498 25 -188 197 -358 378 -374
33 -3 60 -9 60 -12 0 -4 -30 -36 -66 -71 -81 -79 -108 -120 -130 -196 -43
-150 31 -314 178 -391 46 -24 64 -28 143 -28 156 0 142 -10 533 379 370 368
393 397 407 510 8 66 -15 164 -52 220 -64 98 -151 147 -268 154 -100 5 -172
-19 -243 -83 l-49 -44 -11 65 c-43 262 -301 435 -549 369z m37 -430 c0 -196
-3 -295 -10 -295 -27 0 -84 33 -129 75 -152 142 -115 397 71 489 29 14 56 26
60 26 4 0 8 -133 8 -295z m226 259 c132 -75 187 -247 123 -385 -30 -64 -82
-120 -139 -149 -74 -38 -70 -54 -70 276 l0 295 23 -6 c12 -4 41 -18 63 -31z
m683 -307 c68 -45 102 -137 81 -218 -10 -37 -35 -67 -156 -189 l-144 -145
-142 143 -143 143 136 134 c75 74 152 142 170 150 53 24 147 15 198 -18z
m-456 -515 l137 -137 -137 -137 c-76 -75 -153 -144 -172 -153 -25 -12 -51 -16
-93 -13 -128 9 -211 125 -178 248 10 38 34 68 153 188 78 78 144 142 147 142
3 0 67 -62 143 -138z"/>
<path d="M744 1969 l-152 -151 -32 59 c-46 81 -58 93 -96 93 -65 0 -87 -50
-51 -119 102 -193 141 -235 194 -207 15 8 108 95 206 193 164 166 177 182 177
216 0 26 -6 40 -22 51 -47 34 -64 24 -224 -135z"/>
<path d="M4475 1970 l-151 -150 -24 42 c-46 85 -68 108 -104 108 -40 0 -66
-26 -66 -65 0 -16 27 -75 66 -142 70 -119 93 -141 137 -124 37 15 397 384 397
408 0 35 -38 73 -72 73 -27 0 -53 -21 -183 -150z"/>
<path d="M2455 1839 c-105 -57 -251 -115 -396 -158 -58 -17 -109 -38 -116 -47
-10 -14 -13 -95 -13 -340 0 -288 2 -329 19 -383 47 -152 166 -266 456 -441 73
-44 144 -80 156 -80 25 0 224 117 339 198 144 102 237 212 270 319 18 60 20
93 20 387 0 245 -3 326 -13 340 -7 9 -57 30 -115 47 -149 43 -273 93 -389 155
-56 29 -108 54 -115 53 -7 0 -53 -22 -103 -50z m226 -164 c63 -30 172 -73 242
-96 l128 -42 -3 -291 -3 -291 -26 -50 c-47 -89 -179 -198 -396 -329 l-63 -37
-92 57 c-217 133 -319 220 -367 309 l-26 50 -3 291 -3 291 128 42 c70 23 178
66 238 95 61 30 115 55 121 55 7 1 63 -24 125 -54z"/>
<path d="M2615 1229 l-172 -170 -49 83 c-57 97 -86 115 -132 81 -46 -34 -41
-61 38 -199 75 -129 104 -160 142 -150 13 3 119 101 236 219 171 172 212 218
212 240 0 37 -33 67 -72 67 -28 0 -53 -21 -203 -171z"/>
</g>
</svg>
