<?xml version="1.0" standalone="no"?>
<!DOCTYPE svg PUBLIC "-//W3C//DTD SVG 20010904//EN"
 "http://www.w3.org/TR/2001/REC-SVG-20010904/DTD/svg10.dtd">
<svg version="1.0" xmlns="http://www.w3.org/2000/svg"
 width="512.000000pt" height="512.000000pt" viewBox="0 0 512.000000 512.000000"
 preserveAspectRatio="xMidYMid meet">

<g transform="translate(0.000000,512.000000) scale(0.100000,-0.100000)"
fill="#000000" stroke="none">
<path d="M2525 5081 c-11 -5 -31 -21 -45 -35 -58 -63 -8 -171 80 -171 32 0 47
7 72 33 26 25 33 40 33 72 0 68 -81 126 -140 101z"/>
<path d="M1261 4769 c-25 -24 -31 -39 -31 -72 0 -42 1 -43 373 -414 237 -237
382 -374 398 -378 32 -8 81 15 103 47 9 12 16 41 16 63 0 39 -6 46 -373 412
-370 371 -373 373 -414 373 -33 0 -48 -6 -72 -31z"/>
<path d="M3373 4427 c-367 -366 -373 -373 -373 -412 0 -22 7 -51 16 -63 22
-32 71 -55 103 -47 16 4 161 141 399 378 371 371 372 372 372 414 0 59 -44
103 -103 103 -41 0 -44 -2 -414 -373z"/>
<path d="M2498 4660 c-47 -36 -49 -55 -46 -383 l3 -307 32 -32 c46 -46 100
-46 146 0 l32 32 3 307 c3 328 1 347 -46 383 -32 26 -92 26 -124 0z"/>
<path d="M973 4058 c-17 -18 -243 -296 -502 -617 -464 -576 -471 -585 -471
-629 0 -53 -19 -34 294 -302 l228 -195 224 -302 225 -302 -30 -41 c-47 -64
-64 -128 -59 -223 4 -94 26 -149 88 -219 40 -46 131 -101 186 -112 31 -7 31
-8 36 -75 12 -167 148 -316 308 -337 l47 -6 6 -51 c9 -73 49 -146 112 -206 70
-66 130 -93 222 -99 l71 -5 12 -46 c34 -136 166 -250 310 -267 104 -12 227 36
309 120 l34 35 51 -39 c73 -55 126 -73 221 -74 66 0 90 4 137 26 115 53 201
164 215 275 l6 51 46 7 c152 22 290 157 308 302 l6 51 46 7 c152 22 290 157
308 302 l6 51 57 11 c113 19 217 98 267 200 25 49 28 67 28 152 0 80 -4 104
-24 146 l-23 51 162 340 162 340 232 198 c303 260 286 243 286 297 0 43 -12
60 -426 598 -234 305 -440 569 -457 587 -25 25 -39 32 -71 32 -34 0 -78 -24
-322 -180 l-283 -180 -366 0 -366 0 -290 -84 -291 -84 -291 80 -292 80 -290
184 c-254 161 -295 184 -330 184 -33 0 -47 -6 -72 -32z m424 -417 l71 -46
-435 -530 c-240 -291 -440 -529 -445 -527 -17 5 -338 286 -336 293 2 4 187
235 411 513 l408 505 127 -81 c70 -44 159 -101 199 -127z m3112 -274 c194
-252 354 -463 357 -470 7 -19 -326 -302 -343 -291 -7 5 -186 229 -398 499
l-385 490 83 52 c45 28 134 85 197 126 85 55 118 71 126 63 6 -6 170 -217 363
-469z m-552 -387 c228 -289 418 -532 423 -541 7 -12 -26 -89 -122 -290 -72
-151 -133 -276 -135 -279 -2 -2 -257 248 -566 557 -309 308 -571 566 -582 571
-32 16 -596 55 -627 43 -37 -14 -57 -44 -219 -330 -134 -237 -146 -255 -184
-272 -53 -24 -82 -24 -135 4 -36 17 -49 32 -64 68 -13 31 -17 58 -12 80 3 19
93 187 199 374 l192 340 350 102 350 102 359 -2 359 -2 414 -525z m-2144 479
c101 -27 127 -37 124 -49 -2 -9 -90 -167 -195 -353 -105 -185 -199 -359 -208
-387 -21 -65 -15 -176 15 -243 28 -66 112 -151 180 -184 49 -25 68 -28 151
-28 85 0 101 3 150 28 96 49 131 94 276 350 80 139 141 237 150 237 8 0 108
-7 222 -15 l207 -16 603 -602 c347 -345 610 -616 618 -634 30 -69 2 -158 -59
-186 -43 -21 -109 -22 -145 -3 -15 8 -178 166 -362 351 -184 185 -344 343
-355 351 -32 23 -71 17 -109 -16 -40 -35 -53 -78 -35 -112 7 -13 165 -178 352
-368 187 -190 346 -359 353 -377 30 -69 2 -158 -59 -186 -40 -19 -108 -22
-140 -6 -12 6 -132 121 -267 255 -235 233 -248 244 -284 244 -53 0 -106 -52
-106 -104 0 -34 16 -53 243 -286 133 -138 247 -262 254 -277 29 -66 -1 -158
-60 -186 -40 -19 -108 -22 -140 -6 -12 6 -88 76 -168 155 -136 134 -148 144
-183 144 -53 0 -106 -52 -106 -105 0 -40 15 -58 197 -245 119 -122 133 -160
94 -246 -34 -75 -142 -99 -217 -48 -21 15 -40 27 -41 28 -1 1 7 31 18 66 60
188 -50 395 -239 451 -42 12 -44 14 -39 48 7 54 -11 148 -38 200 -48 95 -165
179 -272 196 -39 6 -42 9 -48 48 -21 126 -101 233 -212 284 -48 23 -73 27
-140 28 -69 0 -83 3 -83 16 0 33 -62 139 -106 179 -126 116 -323 132 -449 36
l-33 -25 -188 252 c-103 139 -187 257 -187 262 0 19 915 1126 927 1122 6 -2
69 -19 139 -38z m-373 -1746 c60 -35 79 -128 41 -201 -28 -55 -152 -169 -200
-183 -112 -34 -209 58 -187 177 9 45 142 188 201 216 45 21 101 18 145 -9z
m427 -293 c60 -36 81 -124 47 -195 -8 -18 -75 -91 -148 -163 -99 -98 -142
-133 -172 -142 -112 -33 -213 69 -183 184 8 30 39 68 127 159 154 158 181 177
246 177 33 0 62 -7 83 -20z m361 -360 c57 -35 79 -126 47 -194 -9 -18 -75 -91
-148 -163 -104 -103 -141 -134 -174 -144 -115 -33 -217 69 -184 184 10 33 41
70 150 179 75 75 148 141 161 147 43 17 112 13 148 -9z m289 -430 c54 -32 79
-100 62 -164 -8 -29 -33 -63 -87 -119 -88 -91 -115 -107 -172 -107 -108 0
-177 97 -139 197 11 32 138 165 184 194 40 25 111 25 152 -1z"/>
</g>
</svg>
